<svg width="32" height="41" viewBox="0 0 32 41" fill="none" xmlns="http://www.w3.org/2000/svg">
<path fill-rule="evenodd" clip-rule="evenodd" d="M26.859 27.6231C30.0205 24.7136 32 20.55 32 15.9263C32 7.13043 24.8366 0 16 0C7.16344 0 0 7.13043 0 15.9263C0 20.55 1.97952 24.7136 5.141 27.6231C7.20102 23.7502 11.2909 21.1116 16 21.1116C20.7091 21.1116 24.799 23.7502 26.859 27.6231Z" fill="#F67280"/>
<path d="M26.4186 33.7044C26.4186 39.4319 21.754 40.186 16 40.186C10.246 40.186 5.58139 39.4319 5.58139 33.7044C5.58139 27.9769 10.246 23.3338 16 23.3338C21.754 23.3338 26.4186 27.9769 26.4186 33.7044Z" fill="#F67280"/>
<ellipse cx="16" cy="35.1859" rx="8.55814" ry="3.70378" fill="white"/>
<ellipse cx="10.2326" cy="11.8521" rx="2.7907" ry="4.81492" fill="white"/>
<ellipse cx="21.7674" cy="11.8521" rx="2.7907" ry="4.81492" fill="white"/>
<ellipse cx="9.48838" cy="35.3712" rx="0.55814" ry="0.555567" fill="#F67280"/>
<ellipse cx="13.5814" cy="35.0007" rx="0.55814" ry="0.555567" fill="#F67280"/>
<ellipse cx="16.5581" cy="35.0007" rx="0.55814" ry="0.555567" fill="#F67280"/>
<ellipse cx="19.5349" cy="35.0007" rx="0.55814" ry="0.555567" fill="#F67280"/>
<ellipse cx="23.2558" cy="35.0007" rx="0.55814" ry="0.555567" fill="#F67280"/>
<ellipse cx="20.6512" cy="36.8527" rx="0.55814" ry="0.555567" fill="#F67280"/>
<ellipse cx="18.0465" cy="37.223" rx="0.55814" ry="0.555567" fill="#F67280"/>
<ellipse cx="12.093" cy="36.8527" rx="0.55814" ry="0.555567" fill="#F67280"/>
<ellipse cx="15.0698" cy="37.223" rx="0.55814" ry="0.555567" fill="#F67280"/>
<ellipse cx="12.093" cy="33.5192" rx="0.55814" ry="0.555567" fill="#F67280"/>
<ellipse cx="15.0698" cy="33.1489" rx="0.55814" ry="0.555567" fill="#F67280"/>
<ellipse cx="18.0465" cy="33.1489" rx="0.55814" ry="0.555567" fill="#F67280"/>
<ellipse cx="20.6512" cy="33.5192" rx="0.55814" ry="0.555567" fill="#F67280"/>
</svg>
